<?xml version="1.0" encoding="UTF-8"?>
<!DOCTYPE svg PUBLIC "-//W3C//DTD SVG 1.1//EN" "http://www.w3.org/Graphics/SVG/1.1/DTD/svg11.dtd">
<!-- Creator: CorelDRAW 2018 (64-Bit) -->
<svg xmlns="http://www.w3.org/2000/svg" xml:space="preserve" width="144.055mm" height="192.533mm" version="1.1" style="shape-rendering:geometricPrecision; text-rendering:geometricPrecision; image-rendering:optimizeQuality; fill-rule:evenodd; clip-rule:evenodd"
viewBox="0 0 102800.68 137395.89"
 xmlns:xlink="http://www.w3.org/1999/xlink">
 <defs>
  <style type="text/css">
   <![CDATA[
    .fil0 {fill:#084545}
<!--    .fil1 {fill:#FAB1B1}-->
    .fil1 {fill:#FFFFFF}
   ]]>
  </style>
 </defs>
 <g id="Layer_x0020_1">
  <metadata id="CorelCorpID_0Corel-Layer"/>
  <g id="_2026141004704">
   <path class="fil0" d="M102800.68 51400.3c0,44894.42 -51400.3,85995.58 -51400.3,85995.58 0,0 -51400.38,-40497.44 -51400.38,-85995.58 0,-28387.69 23012.76,-51400.3 51400.38,-51400.3 28387.55,0 51400.3,23012.61 51400.3,51400.3z"/>
   <path class="fil1" d="M86157.86 51224.9c0,10785.05 -4911.86,20423.45 -12622.77,26799.52 -4195.39,3467.56 -9219.79,5973.88 -14732.95,7165.27 -2385.78,519.95 -4861.41,789.98 -7401.84,789.98 -2540.42,0 -5016.05,-269.75 -7401.84,-789.48 -5513.38,-1191.25 -10537.56,-3697.92 -14732.88,-7165.77 -7710.69,-6376.07 -12622.84,-16014.47 -12622.84,-26799.52 0,-19195.52 15562.04,-34757.56 34757.27,-34757.56 19195.3,0 34757.84,15562.04 34757.84,34757.56z"/>
   <path class="fil0" d="M73535.16 54341.29l0 24650.31c-6010.84,4968.17 -13724.32,7955.61 -22134.79,7955.61 -8419.68,0 -16114.52,-2979.66 -22134.79,-7955.61l0 -24636.82 -33.33 38.11c-2486.05,1162.35 -5379.79,-1854.63 -2985.01,-4316.63l25153.12 -23487.17c8388.7,7829.58 16777.05,15658.16 25164.97,23487.17 2394.7,2462 -499.04,5478.98 -2985.08,4316.63l-45.1 -51.59z"/>
   <path class="fil1" d="M58802.14 70223.53l0 14965.81c-2385.71,520.02 -4861.34,789.98 -7401.76,789.98 -2540.5,0 -5016.05,-269.75 -7401.84,-789.41l0 -14966.45c0,-4088.63 3313.14,-7401.55 7401.84,-7401.55 2045.81,0 3894.81,828.87 5234.99,2166.56 1337.61,1340.54 2166.77,3189.46 2166.77,5235.06z"/>
  </g>
 </g>
</svg>
